<mxfile host="app.diagrams.net" modified="2023-12-20T12:24:27.010Z" agent="Mozilla/5.0 (Macintosh; Intel Mac OS X 10_15_7) AppleWebKit/537.36 (KHTML, like Gecko) Chrome/120.0.0.0 Safari/537.36" version="22.1.11" etag="xdC37Rp26hgVrbsmLY8S" type="github">
  <diagram name="Page-1" id="BgI4pfbW2zVzbk5jr7lv">
    <mxGraphModel>
      <root>
        <mxCell id="0" />
        <mxCell id="1" parent="0" />
      </root>
    </mxGraphModel>
  </diagram>
</mxfile>
